<svg width="38" height="38" viewBox="0 0 38 38" fill="none" xmlns="http://www.w3.org/2000/svg">
<g clip-path="url(#clip0_1_27)">
<mask id="mask0_1_27" style="mask-type:luminance" maskUnits="userSpaceOnUse" x="0" y="0" width="38" height="38">
<path d="M38 0H0V38H38V0Z" fill="white"/>
</mask>
<g mask="url(#mask0_1_27)">
<mask id="mask1_1_27" style="mask-type:luminance" maskUnits="userSpaceOnUse" x="0" y="0" width="38" height="38">
<path d="M38 0H0V38H38V0Z" fill="white"/>
</mask>
<g mask="url(#mask1_1_27)">
<mask id="mask2_1_27" style="mask-type:luminance" maskUnits="userSpaceOnUse" x="0" y="0" width="38" height="38">
<path d="M38 0H0V38H38V0Z" fill="white"/>
</mask>
<g mask="url(#mask2_1_27)">
<path d="M38.0509 19C38.057 20.3449 37.9149 21.6863 37.6271 23C37.1615 25.2044 36.3001 27.3062 35.0848 29.2034C33.6076 31.5311 31.6411 33.5092 29.3221 35C26.2576 36.966 22.6917 38.0075 19.0509 38C17.6841 37.9967 16.3212 37.8548 14.9831 37.5763C10.0905 36.4852 5.82655 33.5066 3.11866 29.2882C1.89782 27.4207 1.02499 25.3478 0.542386 23.1695C0.242366 21.7998 0.0889786 20.4021 0.0847778 19C0.0870394 17.6724 0.229065 16.3487 0.508507 15.0509C0.964307 12.8675 1.80819 10.7836 3.00003 8.89831C4.46187 6.58101 6.40385 4.60433 8.69492 3.10171C10.5644 1.87735 12.636 0.993651 14.8136 0.491536C16.2136 0.163535 17.6468 -0.00140461 19.0848 9.00964e-06C20.3889 0.00506996 21.6893 0.141353 22.9661 0.406792C25.1393 0.887989 27.2105 1.74862 29.0848 2.94916C31.8221 4.64836 34.0787 7.02033 35.6393 9.83898C37.2 12.6576 38.0127 15.829 38 19.0509L38.0509 19Z" fill="#05A43B"/>
<path d="M29.8475 19C29.8475 21.1454 29.2113 23.2427 28.0193 25.0265C26.8274 26.8104 25.1332 28.2007 23.1511 29.0217C21.169 29.8427 18.988 30.0576 16.8838 29.639C14.7796 29.2205 12.8467 28.1873 11.3297 26.6703C9.81263 25.1533 8.77951 23.2204 8.36096 21.1162C7.94241 19.012 8.15723 16.831 8.97825 14.8488C9.79926 12.8667 11.1896 11.1726 12.9735 9.98065C14.7573 8.78872 16.8546 8.15253 19 8.15253C21.8769 8.15253 24.636 9.29538 26.6703 11.3297C28.7046 13.364 29.8475 16.1231 29.8475 19Z" fill="#F1F2F2"/>
<path d="M22.8814 0.40677L21.8136 5.49152C20.8891 5.29249 19.9456 5.19587 19 5.20338C17.9445 5.19958 16.8922 5.31903 15.8644 5.55931L14.7288 0.474568C16.1288 0.146567 17.5621 -0.0183724 19 -0.0169588C20.3047 -0.00632306 21.6051 0.135635 22.8814 0.40677Z" fill="#F1F2F2"/>
<path d="M23.1017 37.5593C21.7542 37.8527 20.379 38.0004 19 38C17.6332 37.9967 16.2703 37.8547 14.9322 37.5763L16.0169 32.4915C16.9961 32.7101 17.9967 32.8182 19 32.8136C19.9977 32.8191 20.9928 32.711 21.9661 32.4915L23.1017 37.5593Z" fill="#F1F2F2"/>
<path d="M38.0508 19C38.057 20.3448 37.9149 21.6863 37.6271 23L32.5424 21.9322C32.9712 19.9552 32.9712 17.9092 32.5424 15.9322L37.6271 14.7966C37.9231 16.1778 38.0652 17.5875 38.0508 19Z" fill="#F1F2F2"/>
<path d="M5.47457 22.0339L0.389824 23.1695C0.0898042 21.7998 -0.0636093 20.4021 -0.0678101 19C-0.0655485 17.6724 0.0764773 16.3487 0.355919 15.0508L5.44066 16.1186C5.24441 17.0667 5.14223 18.0318 5.13559 19C5.13402 20.0208 5.24773 21.0386 5.47457 22.0339Z" fill="#F1F2F2"/>
<path d="M11.4068 7.42372C9.73179 8.5113 8.31458 9.95166 7.25426 11.6441L2.91528 8.89829C4.37712 6.58099 6.31913 4.6043 8.6102 3.10168L11.4068 7.42372Z" fill="#F1F2F2"/>
<path d="M35.0339 29.2034C33.5567 31.5311 31.5902 33.5092 29.2712 35L26.4745 30.678C28.17 29.593 29.6099 28.1531 30.6949 26.4576L35.0339 29.2034Z" fill="#F1F2F2"/>
<path d="M34.9322 8.62712L30.6102 11.4237C29.5005 9.74026 28.0444 8.31299 26.339 7.23729L29.0848 2.94916C31.4171 4.40243 33.411 6.33854 34.9322 8.62712Z" fill="#F1F2F2"/>
<path d="M11.5424 30.678L8.79661 35.0339C6.47988 33.5616 4.51303 31.6005 3.03387 29.2881L7.33897 26.4915C8.4191 28.176 9.85356 29.6046 11.5424 30.678Z" fill="#F1F2F2"/>
<path d="M17.0959 22.6349V21.4971L19.4833 19.4069C19.6623 19.245 19.8146 19.0969 19.9403 18.9627C20.066 18.8263 20.1619 18.6899 20.228 18.5536C20.294 18.4151 20.3271 18.2649 20.3271 18.1029C20.3271 17.9218 20.2876 17.7674 20.2088 17.6395C20.13 17.5095 20.0213 17.4094 19.8828 17.3391C19.7443 17.2688 19.5856 17.2336 19.4066 17.2336C19.2255 17.2336 19.0668 17.2709 18.9304 17.3455C18.794 17.4179 18.6875 17.5234 18.6108 17.6619C18.5362 17.8004 18.4989 17.9687 18.4989 18.1669H17C17 17.7215 17.1001 17.337 17.3004 17.0131C17.5007 16.6892 17.782 16.4399 18.1442 16.2652C18.5085 16.0884 18.9315 16 19.413 16C19.9094 16 20.3409 16.0831 20.7074 16.2492C21.0739 16.4154 21.3572 16.6477 21.5575 16.946C21.7599 17.2421 21.8611 17.5862 21.8611 17.9783C21.8611 18.2276 21.8111 18.4747 21.7109 18.7198C21.6108 18.9648 21.4307 19.2354 21.1708 19.5316C20.913 19.8277 20.5465 20.1825 20.0714 20.5958L19.2883 21.3181V21.3597H21.941V22.6349H17.0959Z" fill="#2D2D2D"/>
</g>
</g>
</g>
</g>
<defs>
<clipPath id="clip0_1_27">
<rect width="38" height="38" fill="white"/>
</clipPath>
</defs>
</svg>
