<svg width="38" height="38" viewBox="0 0 38 38" fill="none" xmlns="http://www.w3.org/2000/svg">
<g clip-path="url(#clip0_1_35)">
<mask id="mask0_1_35" style="mask-type:luminance" maskUnits="userSpaceOnUse" x="0" y="0" width="38" height="38">
<path d="M38 0H0V38H38V0Z" fill="white"/>
</mask>
<g mask="url(#mask0_1_35)">
<path d="M38.0509 19C38.057 20.3449 37.9149 21.6863 37.6271 23C37.1615 25.2044 36.3001 27.3062 35.0848 29.2034C33.6076 31.5311 31.6411 33.5092 29.3221 35C26.2576 36.966 22.6917 38.0075 19.0509 38C17.6841 37.9967 16.3212 37.8548 14.9831 37.5763C10.0905 36.4852 5.82655 33.5066 3.11866 29.2882C1.89782 27.4207 1.02499 25.3478 0.542386 23.1695C0.242366 21.7998 0.0889786 20.4021 0.0847778 19C0.0870394 17.6724 0.229065 16.3487 0.508507 15.0509C0.964307 12.8675 1.80819 10.7836 3.00003 8.89831C4.46187 6.58101 6.40385 4.60433 8.69492 3.10171C10.5644 1.87735 12.636 0.993651 14.8136 0.491536C16.2136 0.163535 17.6468 -0.00140461 19.0848 9.00964e-06C20.3889 0.00506996 21.6893 0.141353 22.9661 0.406792C25.1393 0.887989 27.2105 1.74862 29.0848 2.94916C31.8221 4.64836 34.0787 7.02033 35.6393 9.83898C37.2 12.6576 38.0127 15.829 38 19.0509L38.0509 19Z" fill="#184E9F"/>
<path d="M29.8475 19C29.8475 21.1454 29.2113 23.2427 28.0193 25.0265C26.8274 26.8104 25.1332 28.2007 23.1511 29.0217C21.169 29.8427 18.988 30.0576 16.8838 29.639C14.7796 29.2205 12.8467 28.1873 11.3297 26.6703C9.81263 25.1533 8.77951 23.2204 8.36096 21.1162C7.94241 19.012 8.15723 16.831 8.97825 14.8488C9.79926 12.8667 11.1896 11.1726 12.9735 9.98065C14.7573 8.78872 16.8546 8.15253 19 8.15253C21.8769 8.15253 24.636 9.29538 26.6703 11.3297C28.7046 13.364 29.8475 16.1231 29.8475 19Z" fill="#F1F2F2"/>
<path d="M22.8814 0.40677L21.8136 5.49152C20.8891 5.29249 19.9456 5.19587 19 5.20338C17.9445 5.19958 16.8922 5.31903 15.8644 5.55931L14.7288 0.474568C16.1288 0.146567 17.5621 -0.0183724 19 -0.0169588C20.3047 -0.00632314 21.6051 0.135635 22.8814 0.40677Z" fill="#F1F2F2"/>
<path d="M23.1017 37.5593C21.7542 37.8527 20.379 38.0004 19 38C17.6332 37.9967 16.2703 37.8547 14.9322 37.5763L16.0169 32.4915C16.9961 32.7101 17.9967 32.8182 19 32.8136C19.9977 32.8191 20.9928 32.711 21.9661 32.4915L23.1017 37.5593Z" fill="#F1F2F2"/>
<path d="M38.0508 19C38.057 20.3448 37.9149 21.6863 37.6271 23L32.5424 21.9322C32.9712 19.9552 32.9712 17.9092 32.5424 15.9322L37.6271 14.7966C37.9231 16.1778 38.0652 17.5875 38.0508 19Z" fill="#F1F2F2"/>
<path d="M5.47457 22.0339L0.389824 23.1695C0.0898042 21.7998 -0.0636093 20.4021 -0.0678101 19C-0.0655485 17.6724 0.0764773 16.3487 0.355919 15.0508L5.44066 16.1186C5.24441 17.0667 5.14223 18.0318 5.13559 19C5.13402 20.0208 5.24773 21.0386 5.47457 22.0339Z" fill="#F1F2F2"/>
<path d="M11.4068 7.42372C9.73179 8.5113 8.31458 9.95166 7.25426 11.6441L2.91528 8.89829C4.37712 6.58099 6.31913 4.6043 8.6102 3.10168L11.4068 7.42372Z" fill="#F1F2F2"/>
<path d="M35.0339 29.2034C33.5567 31.5311 31.5902 33.5092 29.2712 35L26.4745 30.678C28.17 29.593 29.6099 28.1531 30.6949 26.4576L35.0339 29.2034Z" fill="#F1F2F2"/>
<path d="M34.9322 8.62712L30.6102 11.4237C29.5005 9.74026 28.0444 8.31299 26.339 7.23729L29.0848 2.94916C31.4171 4.40243 33.411 6.33854 34.9322 8.62712Z" fill="#F1F2F2"/>
<path d="M11.5424 30.678L8.79661 35.0339C6.47988 33.5616 4.51303 31.6005 3.03387 29.2881L7.33897 26.4915C8.4191 28.176 9.85355 29.6046 11.5424 30.678Z" fill="#F1F2F2"/>
<path d="M26.1028 16L24.9999 16.0164L23.2313 17.945C23.0509 18.1413 22.8063 18.2516 22.5514 18.2516C22.2965 18.2516 22.0519 18.1413 21.8715 17.945L20.1029 16.0164L19 16L21.1915 18.3898C21.5524 18.7827 22.0415 19.0034 22.5514 19.0034C23.0613 19.0034 23.5504 18.7827 23.9113 18.3898L26.1028 16ZM19 22.5701L20.1029 22.5537L21.8715 20.6251C22.0519 20.4288 22.2965 20.3185 22.5514 20.3185C22.8063 20.3185 23.0509 20.4288 23.2313 20.6251L24.9999 22.5537L26.1028 22.5701L23.9113 20.1803C23.5504 19.7873 23.0613 19.5667 22.5514 19.5667C22.0415 19.5667 21.5524 19.7873 21.1915 20.1803L19 22.5701Z" fill="#2D2D2D"/>
<path d="M15.0254 23.0895C14.5162 23.0895 14.0613 23.0085 13.6607 22.8466C13.2623 22.6825 12.949 22.4609 12.7211 22.1818C12.4952 21.9006 12.3823 21.5831 12.3823 21.2294C12.3823 20.9588 12.4473 20.7106 12.5772 20.4847C12.7072 20.2589 12.883 20.0714 13.1046 19.9222C13.3283 19.771 13.5776 19.674 13.8525 19.6314V19.5803C13.4924 19.5142 13.1973 19.3469 12.9672 19.0785C12.7392 18.81 12.6252 18.4957 12.6252 18.1357C12.6252 17.7947 12.7285 17.4911 12.9352 17.2248C13.144 16.9585 13.4284 16.7486 13.7885 16.5952C14.1507 16.4418 14.563 16.3651 15.0254 16.3651C15.4878 16.3651 15.899 16.4418 16.2591 16.5952C16.6213 16.7486 16.9057 16.9585 17.1124 17.2248C17.3212 17.4911 17.4256 17.7947 17.4256 18.1357C17.4256 18.4979 17.3095 18.8132 17.0772 19.0817C16.8471 19.348 16.5542 19.5142 16.1983 19.5803V19.6314C16.4711 19.674 16.7182 19.771 16.9398 19.9222C17.1635 20.0714 17.3404 20.2589 17.4704 20.4847C17.6025 20.7106 17.6685 20.9588 17.6685 21.2294C17.6685 21.5831 17.5545 21.9006 17.3265 22.1818C17.0985 22.4609 16.7853 22.6825 16.3869 22.8466C15.9906 23.0085 15.5368 23.0895 15.0254 23.0895ZM15.0254 21.9677C15.2193 21.9677 15.3897 21.9315 15.5368 21.859C15.6838 21.7844 15.7988 21.6811 15.8819 21.549C15.9672 21.4169 16.0098 21.2678 16.0098 21.1016C16.0098 20.9311 15.9672 20.7798 15.8819 20.6477C15.7967 20.5156 15.6795 20.4123 15.5304 20.3377C15.3833 20.261 15.215 20.2227 15.0254 20.2227C14.8379 20.2227 14.6696 20.261 14.5204 20.3377C14.3713 20.4123 14.2541 20.5156 14.1689 20.6477C14.0836 20.7798 14.041 20.9311 14.041 21.1016C14.041 21.2678 14.0826 21.4169 14.1657 21.549C14.2509 21.679 14.367 21.7812 14.514 21.8558C14.6632 21.9304 14.8336 21.9677 15.0254 21.9677ZM15.0254 19.1072C15.1916 19.1072 15.3386 19.0732 15.4664 19.005C15.5964 18.9368 15.6976 18.842 15.7701 18.7205C15.8446 18.5991 15.8819 18.4616 15.8819 18.3082C15.8819 18.1548 15.8446 18.0195 15.7701 17.9023C15.6976 17.7852 15.5975 17.6935 15.4696 17.6275C15.3418 17.5593 15.1937 17.5252 15.0254 17.5252C14.8592 17.5252 14.7111 17.5593 14.5811 17.6275C14.4512 17.6935 14.35 17.7852 14.2775 17.9023C14.2051 18.0195 14.1689 18.1548 14.1689 18.3082C14.1689 18.4616 14.2051 18.5991 14.2775 18.7205C14.3521 18.8398 14.4544 18.9347 14.5843 19.005C14.7143 19.0732 14.8613 19.1072 15.0254 19.1072Z" fill="#2D2D2D"/>
</g>
</g>
<defs>
<clipPath id="clip0_1_35">
<rect width="38" height="38" fill="white"/>
</clipPath>
</defs>
</svg>
