<svg width="38" height="38" viewBox="0 0 38 38" fill="none" xmlns="http://www.w3.org/2000/svg">
<g clip-path="url(#clip0_1_77)">
<mask id="mask0_1_77" style="mask-type:luminance" maskUnits="userSpaceOnUse" x="0" y="0" width="38" height="38">
<path d="M38 0H0V38H38V0Z" fill="white"/>
</mask>
<g mask="url(#mask0_1_77)">
<mask id="mask1_1_77" style="mask-type:luminance" maskUnits="userSpaceOnUse" x="0" y="0" width="38" height="38">
<path d="M38 0H0V38H38V0Z" fill="white"/>
</mask>
<g mask="url(#mask1_1_77)">
<mask id="mask2_1_77" style="mask-type:luminance" maskUnits="userSpaceOnUse" x="0" y="0" width="38" height="38">
<path d="M38 0H0V38H38V0Z" fill="white"/>
</mask>
<g mask="url(#mask2_1_77)">
<path d="M38.0509 19C38.057 20.3449 37.9149 21.6863 37.6271 23C37.1615 25.2044 36.3001 27.3062 35.0848 29.2034C33.6076 31.5311 31.6411 33.5092 29.3221 35C26.2576 36.966 22.6917 38.0075 19.0509 38C17.6841 37.9967 16.3212 37.8548 14.9831 37.5763C10.0905 36.4852 5.82655 33.5066 3.11866 29.2882C1.89782 27.4207 1.02499 25.3478 0.542386 23.1695C0.242366 21.7998 0.0889786 20.4021 0.0847778 19C0.0870394 17.6724 0.229065 16.3487 0.508507 15.0509C0.964307 12.8675 1.80819 10.7836 3.00003 8.89831C4.46187 6.58101 6.40385 4.60433 8.69492 3.10171C10.5644 1.87735 12.636 0.993651 14.8136 0.491536C16.2136 0.163535 17.6468 -0.00140461 19.0848 9.00964e-06C20.3889 0.00506996 21.6893 0.141353 22.9661 0.406792C25.1393 0.887989 27.2105 1.74862 29.0848 2.94916C31.8221 4.64836 34.0787 7.02033 35.6393 9.83898C37.2 12.6576 38.0127 15.829 38 19.0509L38.0509 19Z" fill="#184E9F"/>
<path d="M29.8475 19C29.8475 21.1454 29.2113 23.2427 28.0193 25.0265C26.8274 26.8104 25.1332 28.2007 23.1511 29.0217C21.169 29.8427 18.988 30.0576 16.8838 29.639C14.7796 29.2205 12.8467 28.1873 11.3297 26.6703C9.81263 25.1533 8.77951 23.2204 8.36096 21.1162C7.94241 19.012 8.15723 16.831 8.97825 14.8488C9.79926 12.8667 11.1896 11.1726 12.9735 9.98065C14.7573 8.78872 16.8546 8.15253 19 8.15253C21.8769 8.15253 24.636 9.29538 26.6703 11.3297C28.7046 13.364 29.8475 16.1231 29.8475 19Z" fill="#F1F2F2"/>
<path d="M22.8814 0.40677L21.8136 5.49152C20.8891 5.29249 19.9456 5.19587 19 5.20338C17.9445 5.19958 16.8922 5.31903 15.8644 5.55931L14.7288 0.474568C16.1288 0.146567 17.5621 -0.0183724 19 -0.0169588C20.3047 -0.00632306 21.6051 0.135635 22.8814 0.40677Z" fill="#F1F2F2"/>
<path d="M23.1017 37.5593C21.7542 37.8527 20.379 38.0004 19 38C17.6332 37.9967 16.2703 37.8547 14.9322 37.5763L16.0169 32.4915C16.9961 32.7101 17.9967 32.8182 19 32.8136C19.9977 32.8191 20.9928 32.711 21.9661 32.4915L23.1017 37.5593Z" fill="#F1F2F2"/>
<path d="M38.0508 19C38.057 20.3448 37.9149 21.6863 37.6271 23L32.5424 21.9322C32.9712 19.9552 32.9712 17.9092 32.5424 15.9322L37.6271 14.7966C37.9231 16.1778 38.0652 17.5875 38.0508 19Z" fill="#F1F2F2"/>
<path d="M5.47457 22.0339L0.389824 23.1695C0.0898042 21.7998 -0.0636093 20.4021 -0.0678101 19C-0.0655485 17.6724 0.0764773 16.3487 0.355919 15.0508L5.44066 16.1186C5.24441 17.0667 5.14223 18.0318 5.13559 19C5.13402 20.0208 5.24773 21.0386 5.47457 22.0339Z" fill="#F1F2F2"/>
<path d="M11.4068 7.42372C9.73179 8.5113 8.31458 9.95166 7.25426 11.6441L2.91528 8.89829C4.37712 6.58099 6.31913 4.6043 8.6102 3.10168L11.4068 7.42372Z" fill="#F1F2F2"/>
<path d="M35.0339 29.2034C33.5567 31.5311 31.5902 33.5092 29.2712 35L26.4745 30.678C28.17 29.593 29.6099 28.1531 30.6949 26.4576L35.0339 29.2034Z" fill="#F1F2F2"/>
<path d="M34.9322 8.62712L30.6102 11.4237C29.5005 9.74026 28.0444 8.31299 26.339 7.23729L29.0848 2.94916C31.4171 4.40243 33.411 6.33854 34.9322 8.62712Z" fill="#F1F2F2"/>
<path d="M11.5424 30.678L8.79661 35.0339C6.47988 33.5616 4.51303 31.6005 3.03387 29.2881L7.33897 26.4915C8.4191 28.176 9.85355 29.6046 11.5424 30.678Z" fill="#F1F2F2"/>
<path d="M18.6431 22.7244C18.1339 22.7244 17.679 22.6434 17.2784 22.4815C16.88 22.3174 16.5667 22.0958 16.3388 21.8167C16.1129 21.5355 16 21.218 16 20.8643C16 20.5937 16.065 20.3455 16.1949 20.1196C16.3249 19.8938 16.5007 19.7063 16.7223 19.5571C16.946 19.4059 17.1953 19.3089 17.4702 19.2663V19.2152C17.1101 19.1491 16.815 18.9818 16.5849 18.7134C16.3569 18.4449 16.2429 18.1306 16.2429 17.7706C16.2429 17.4296 16.3462 17.126 16.5529 16.8597C16.7617 16.5934 17.0461 16.3835 17.4062 16.2301C17.7684 16.0767 18.1807 16 18.6431 16C19.1055 16 19.5167 16.0767 19.8768 16.2301C20.239 16.3835 20.5234 16.5934 20.7301 16.8597C20.9389 17.126 21.0433 17.4296 21.0433 17.7706C21.0433 18.1328 20.9272 18.4481 20.6949 18.7166C20.4648 18.9829 20.1719 19.1491 19.816 19.2152V19.2663C20.0888 19.3089 20.3359 19.4059 20.5575 19.5571C20.7812 19.7063 20.9581 19.8938 21.0881 20.1196C21.2202 20.3455 21.2862 20.5937 21.2862 20.8643C21.2862 21.218 21.1722 21.5355 20.9442 21.8167C20.7162 22.0958 20.403 22.3174 20.0046 22.4815C19.6083 22.6434 19.1545 22.7244 18.6431 22.7244ZM18.6431 21.6026C18.837 21.6026 19.0074 21.5664 19.1545 21.4939C19.3015 21.4193 19.4165 21.316 19.4996 21.1839C19.5849 21.0518 19.6275 20.9027 19.6275 20.7365C19.6275 20.566 19.5849 20.4147 19.4996 20.2826C19.4144 20.1505 19.2972 20.0472 19.1481 19.9726C19.001 19.8959 18.8327 19.8576 18.6431 19.8576C18.4556 19.8576 18.2873 19.8959 18.1381 19.9726C17.989 20.0472 17.8718 20.1505 17.7866 20.2826C17.7013 20.4147 17.6587 20.566 17.6587 20.7365C17.6587 20.9027 17.7003 21.0518 17.7834 21.1839C17.8686 21.3139 17.9847 21.4161 18.1317 21.4907C18.2809 21.5653 18.4513 21.6026 18.6431 21.6026ZM18.6431 18.7421C18.8093 18.7421 18.9563 18.7081 19.0841 18.6399C19.2141 18.5717 19.3153 18.4769 19.3878 18.3554C19.4623 18.234 19.4996 18.0965 19.4996 17.9431C19.4996 17.7897 19.4623 17.6544 19.3878 17.5372C19.3153 17.4201 19.2152 17.3284 19.0873 17.2624C18.9595 17.1942 18.8114 17.1601 18.6431 17.1601C18.4769 17.1601 18.3288 17.1942 18.1988 17.2624C18.0689 17.3284 17.9677 17.4201 17.8952 17.5372C17.8228 17.6544 17.7866 17.7897 17.7866 17.9431C17.7866 18.0965 17.8228 18.234 17.8952 18.3554C17.9698 18.4747 18.0721 18.5696 18.202 18.6399C18.332 18.7081 18.479 18.7421 18.6431 18.7421Z" fill="#2D2D2D"/>
</g>
</g>
</g>
</g>
<defs>
<clipPath id="clip0_1_77">
<rect width="38" height="38" fill="white"/>
</clipPath>
</defs>
</svg>
